#!OML:ASF H:\BreakDance\Project 1\Capture day 1\Session 1\Male.ASF
:FULLY-SPECIFIED
:DEGREES
726
root 22.7281 15.9665 2.5167 -354.318 252.119 350.233
lowerback 0.902317 2.44482 0.217026
upperback 2.5505 3.24448 -2.97344
thorax 2.29963 1.63234 -3.13981
lowerneck -0.371785 5.17174 4.73366
upperneck 10.1679 7.05799 -4.99127
head 3.79245 3.42087 -2.24819
rclavicle 6.83571e-014 -6.75868e-015
rhumerus -0.746669 33.5515 -82.2934
rradius 45.0053
rwrist 17.3784
rhand -27.5385 689.686
rfingers 7.12502
rthumb -0.940166 -60.2913
lclavicle 6.83571e-014 -6.75868e-015
lhumerus -15.8489 -22.1765 73.6404
lradius 45.8359
lwrist -11.6913
lhand -27.7485 -387.326
lfingers 7.12502
lthumb -1.14303 2.6511
rfemur -20.6474 -15.0271 7.32408
rtibia 46.6558
rfoot -15.3704 -9.5868
rtoes -14.3512
lfemur -7.38289 5.62846 -10.3631
ltibia 34.5454
lfoot -27.1723 16.6945
ltoes -30.2337
727
root 22.72 15.9684 2.51168 -354.321 252.236 350.251
lowerback 0.894897 2.45172 0.293942
upperback 2.49534 3.25377 -3.01093
thorax 2.2542 1.63876 -3.22239
lowerneck -0.0653197 4.98762 4.75443
upperneck 9.82763 6.81556 -5.02269
head 3.60225 3.30863 -2.27993
rclavicle -5.17834e-014 7.95139e-015
rhumerus -1.01724 33.5443 -82.4247
rradius 45.1135
rwrist 17.2044
rhand -27.5859 689.921
rfingers 7.12502
rthumb -0.985944 -60.0567
lclavicle -5.17834e-014 7.95139e-015
lhumerus -15.9537 -22.4821 73.6787
lradius 45.9927
lwrist -11.6501
lhand -27.6673 -387.237
lfingers 7.12502
lthumb -1.06461 2.7403
rfemur -20.5527 -14.9933 7.34075
rtibia 46.6079
rfoot -15.4019 -9.70882
rtoes -14.4279
lfemur -7.35871 5.48066 -10.353
ltibia 34.4944
lfoot -27.1792 16.7406
ltoes -30.2466
728
root 22.7121 15.9707 2.50722 -354.221 252.371 350.167
lowerback 0.848966 2.41484 0.248133
upperback 2.54281 3.20577 -2.98276
thorax 2.32176 1.61409 -3.16529
lowerneck -0.129561 4.87232 4.61085
upperneck 9.56384 6.66089 -5.00801
head 3.5051 3.23129 -2.2539
rclavicle -4.97459e-014 -5.96354e-015
rhumerus -1.03779 33.7091 -82.334
rradius 45.2471
rwrist 16.9836
rhand -27.6514 690.299
rfingers 7.12502
rthumb -1.04926 -59.678
lclavicle -4.97459e-014 -5.96354e-015
lhumerus -15.8876 -22.5612 73.7436
lradius 46.0833
lwrist -11.6239
lhand -27.5817 -387.16
lfingers 7.12502
lthumb -0.981926 2.81745
rfemur -20.4525 -14.952 7.32403
rtibia 46.5508
rfoot -15.4666 -9.82468
rtoes -14.301
lfemur -7.34385 5.29899 -10.3835
ltibia 34.4338
lfoot -27.1786 16.8027
ltoes -30.2098
729
root 22.7042 15.9736 2.5032 -354.074 252.522 350.043
lowerback 0.811538 2.38759 0.21793
upperback 2.57108 3.17035 -2.97665
thorax 2.3678 1.596 -3.14039
lowerneck -0.209197 4.76082 4.46182
upperneck 9.33028 6.50526 -4.91417
head 3.41797 3.15564 -2.1996
rclavicle -1.61016e-014 -1.11319e-014
rhumerus -1.16578 33.8024 -82.3024
rradius 45.4243
rwrist 16.8033
rhand -27.6966 690.84
rfingers 7.12502
rthumb -1.09285 -59.1374
lclavicle -1.61016e-014 -1.11319e-014
lhumerus -15.8362 -22.6999 73.8232
lradius 46.1389
lwrist -11.5683
lhand -27.4876 -387.092
lfingers 7.12502
lthumb -0.891057 2.88596
rfemur -20.3468 -14.8845 7.29914
rtibia 46.4791
rfoot -15.5468 -9.97199
rtoes -14.0363
lfemur -7.33799 5.08689 -10.433
ltibia 34.3664
lfoot -27.1747 16.8807
ltoes -30.134
730
root 22.696 15.977 2.49937 -353.956 252.687 349.954
lowerback 0.771489 2.36647 0.21686
upperback 2.58876 3.14314 -2.98243
thorax 2.40725 1.58273 -3.14412
lowerneck -0.257449 4.63853 4.33071
upperneck 9.05516 6.33306 -4.79259
head 3.31 3.07433 -2.1405
rclavicle -4.5149e-014 6.36111e-015
rhumerus -1.39195 33.8294 -82.3264
rradius 45.6533
rwrist 16.6627
rhand -27.6752 691.472
rfingers 7.12502
rthumb -1.07224 -58.5054
lclavicle -4.5149e-014 6.36111e-015
lhumerus -15.7921 -22.8701 73.9131
lradius 46.1617
lwrist -11.4866
lhand -27.3826 -387.051
lfingers 7.12502
lthumb -0.789632 2.92709
rfemur -20.2318 -14.7815 7.29412
rtibia 46.3871
rfoot -15.6227 -10.1816
rtoes -13.7705
lfemur -7.33594 4.84957 -10.4742
ltibia 34.2956
lfoot -27.175 16.9741
ltoes -30.0597
731
root 22.6871 15.9812 2.49566 -353.942 252.867 349.98
lowerback 0.724405 2.35301 0.266737
upperback 2.59704 3.12628 -2.99618
thorax 2.44489 1.57596 -3.1844
lowerneck -0.291537 4.51575 4.20655
upperneck 8.7501 6.15522 -4.60002
head 3.18692 2.9934 -2.05933
rclavicle 1.31943e-014 -8.74653e-015
rhumerus -1.72319 33.7727 -82.4148
rradius 45.9383
rwrist 16.5566
rhand -27.5255 692.045
rfingers 7.12502
rthumb -0.927658 -57.9328
lclavicle 1.31943e-014 -8.74653e-015
lhumerus -15.7615 -23.0771 74.0135
lradius 46.1625
lwrist -11.369
lhand -27.2689 -387.07
lfingers 7.12502
lthumb -0.679809 2.90904
rfemur -20.1042 -14.6408 7.33497
rtibia 46.2723
rfoot -15.6871 -10.4529
rtoes -13.5499
lfemur -7.33563 4.59025 -10.4792
ltibia 34.2242
lfoot -27.1932 17.063
ltoes -29.9607
732
root 22.6775 15.9859 2.49229 -354.05 253.065 350.137
lowerback 0.661807 2.34094 0.360351
upperback 2.59287 3.11148 -3.00408
thorax 2.48056 1.57136 -3.24275
lowerneck -0.267212 4.40021 4.11348
upperneck 8.37166 5.98656 -4.39382
head 3.0305 2.91964 -1.98032
rclavicle -5.61567e-015 2.3059e-014
rhumerus -2.1766 33.6528 -82.5668
rradius 46.2859
rwrist 16.4665
rhand -27.2113 692.461
rfingers 7.12502
rthumb -0.624182 -57.518
lclavicle -5.61567e-015 2.3059e-014
lhumerus -15.782 -23.2965 74.1525
lradius 46.1581
lwrist -11.2208
lhand -27.1587 -387.16
lfingers 7.12502
lthumb -0.573318 2.81863
rfemur -19.9613 -14.4714 7.42232
rtibia 46.1359
rfoot -15.7453 -10.7579
rtoes -13.3186
lfemur -7.33545 4.30861 -10.4437
ltibia 34.1532
lfoot -27.2384 17.1336
ltoes -29.8095
733
root 22.6672 15.9912 2.48948 -354.222 253.282 350.366
lowerback 0.58501 2.32877 0.479673
upperback 2.57422 3.09665 -3.00967
thorax 2.51053 1.5674 -3.3129
lowerneck -0.162227 4.27163 4.04115
upperneck 7.90216 5.80129 -4.18135
head 2.82989 2.83951 -1.90541
rclavicle -7.77745e-015 -1.74931e-014
rhumerus -2.76026 33.4684 -82.7858
rradius 46.6948
rwrist 16.3666
rhand -26.7338 692.717
rfingers 7.12502
rthumb -0.163025 -57.2625
lclavicle -7.77745e-015 -1.74931e-014
lhumerus -15.8691 -23.5386 74.3366
lradius 46.1698
lwrist -11.0314
lhand -27.046 -387.303
lfingers 7.12502
lthumb -0.464561 2.67633
rfemur -19.8042 -14.2872 7.53209
rtibia 45.982
rfoot -15.8049 -11.0736
rtoes -13.0338
lfemur -7.3395 4.00536 -10.3885
ltibia 34.0823
lfoot -27.2979 17.191
ltoes -29.6481
734
root 22.6565 15.9969 2.48735 -354.392 253.525 350.599
lowerback 0.457769 2.25618 0.471381
upperback 2.66263 3.0025 -2.9163
thorax 2.66161 1.52112 -3.20669
lowerneck -0.377644 4.19577 3.83607
upperneck 7.43332 5.6881 -4.00568
head 2.69024 2.78758 -1.81131
rclavicle -1.42131e-014 -3.06128e-014
rhumerus -3.11504 33.4732 -82.7856
rradius 47.1523
rwrist 16.1553
rhand -26.1304 692.897
rfingers 7.12502
rthumb 0.419781 -57.0826
lclavicle -1.42131e-014 -3.06128e-014
lhumerus -15.8328 -23.496 74.577
lradius 46.1749
lwrist -10.8332
lhand -26.9166 -387.485
lfingers 7.12502
lthumb -0.339548 2.49427
rfemur -19.6355 -14.0939 7.64195
rtibia 45.8162
rfoot -15.8685 -11.3976
rtoes -12.707
lfemur -7.35548 3.68249 -10.3338
ltibia 34.011
lfoot -27.3513 17.2423
ltoes -29.519
735
root 22.6456 16.0029 2.48569 -354.526 253.793 350.802
lowerback 0.337033 2.18568 0.461651
upperback 2.73615 2.91074 -2.8336
thorax 2.79475 1.47579 -3.11171
lowerneck -0.566478 4.07701 3.62205
upperneck 6.9403 5.51678 -3.8007
head 2.53522 2.70751 -1.70898
rclavicle 3.34207e-014 -3.02153e-014
rhumerus -3.58507 33.3971 -82.8575
rradius 47.6527
rwrist 15.8995
rhand -25.4589 693.17
rfingers 7.12502
rthumb 1.06833 -56.807
lclavicle 3.34207e-014 -3.02153e-014
lhumerus -15.8468 -23.4917 74.847
lradius 46.2158
lwrist -10.5989
lhand -26.7496 -387.667
lfingers 7.12502
lthumb -0.178228 2.3128
rfemur -19.4614 -13.8869 7.74279
rtibia 45.6435
rfoot -15.9371 -11.7396
rtoes -12.4056
lfemur -7.38711 3.34371 -10.2902
ltibia 33.9394
lfoot -27.386 17.3021
ltoes -29.4581
736
root 22.6347 16.009 2.48411 -354.638 254.074 350.99
lowerback 0.199227 2.08549 0.374237
upperback 2.86109 2.77979 -2.70001
thorax 2.98217 1.40858 -2.92054
lowerneck -0.943546 3.96407 3.28964
upperneck 6.45354 5.35305 -3.56763
head 2.41345 2.62757 -1.5739
rclavicle 1.90585e-014 -1.74931e-014
rhumerus -3.9572 33.3865 -82.8363
rradius 48.1825
rwrist 15.557
rhand -24.7392 693.613
rfingers 7.12502
rthumb 1.76342 -56.3599
lclavicle 1.90585e-014 -1.74931e-014
lhumerus -15.7974 -23.3319 75.1555
lradius 46.2646
lwrist -10.361
lhand -26.5389 -387.828
lfingers 7.12502
lthumb 0.0252345 2.15165
rfemur -19.2913 -13.6514 7.84405
rtibia 45.4668
rfoot -16.0071 -12.1224
rtoes -12.1896
lfemur -7.43788 2.99548 -10.2525
ltibia 33.8684
lfoot -27.3965 17.3856
ltoes -29.4817
737
root 22.6238 16.0151 2.48234 -354.77 254.36 351.216
lowerback 0.0766881 2.00208 0.313852
upperback 2.94739 2.67066 -2.58771
thorax 3.12573 1.35257 -2.76787
lowerneck -1.27676 3.81952 2.99307
upperneck 5.9606 5.14712 -3.31426
head 2.28279 2.52837 -1.44165
rclavicle -5.07895e-014 -1.70955e-014
rhumerus -4.48237 33.2481 -82.931
rradius 48.7478
rwrist 15.1875
rhand -23.9906 694.22
rfingers 7.12502
rthumb 2.4864 -55.7455
lclavicle -5.07895e-014 -1.70955e-014
lhumerus -15.8156 -23.2363 75.4876
lradius 46.3424
lwrist -10.1021
lhand -26.2915 -387.965
lfingers 7.12502
lthumb 0.26424 2.01447
rfemur -19.1373 -13.3734 7.96526
rtibia 45.2878
rfoot -16.079 -12.5649
rtoes -12.0478
lfemur -7.5129 2.64335 -10.2064
ltibia 33.7986
lfoot -27.3893 17.4964
ltoes -29.5669
738
root 22.6128 16.0216 2.48018 -354.943 254.645 351.502
lowerback -0.038982 1.93527 0.282526
upperback 2.99266 2.5833 -2.49409
thorax 3.22708 1.30809 -2.6515
lowerneck -1.53733 3.65042 2.7199
upperneck 5.45953 4.90834 -3.02807
head 2.13732 2.41444 -1.30611
rclavicle 9.19379e-015 -2.54444e-014
rhumerus -5.17401 32.9868 -83.1498
rradius 49.3563
rwrist 14.8035
rhand -23.2129 694.921
rfingers 7.12502
rthumb 3.23745 -55.0342
lclavicle 9.19379e-015 -2.54444e-014
lhumerus -15.9183 -23.1937 75.847
lradius 46.454
lwrist -9.81993
lhand -26.0068 -388.075
lfingers 7.12502
lthumb 0.539155 1.90433
rfemur -19.0037 -13.0488 8.1145
rtibia 45.1067
rfoot -16.1633 -13.065
rtoes -11.9083
lfemur -7.61039 2.29177 -10.1449
ltibia 33.7302
lfoot -27.3778 17.6235
ltoes -29.6913
